<svg width="127" height="54" viewBox="0 0 127 54" fill="none" xmlns="http://www.w3.org/2000/svg">
<path d="M1.28 26.28L18.16 16.04V22.84L10.56 27.64L18.16 32.16V39.32L1.28 29.32V26.28ZM24.6231 38V9.6H35.2231C38.3431 9.6 40.9431 10.24 43.0231 11.52C45.1298 12.7733 46.7165 14.48 47.7831 16.64C48.8498 18.7733 49.3831 21.1467 49.3831 23.76C49.3831 26.64 48.7965 29.1467 47.6231 31.28C46.4498 33.4133 44.7965 35.0667 42.6631 36.24C40.5565 37.4133 38.0765 38 35.2231 38H24.6231ZM42.7031 23.76C42.7031 21.2533 42.0498 19.2267 40.7431 17.68C39.4365 16.1333 37.5965 15.36 35.2231 15.36H31.1831V32.24H35.2231C36.8231 32.24 38.1831 31.88 39.3031 31.16C40.4231 30.4133 41.2631 29.4 41.8231 28.12C42.4098 26.84 42.7031 25.3867 42.7031 23.76ZM54.4559 38V9.6H73.7359V15.36H61.0159V21.48H71.4959V26.8H61.0159V38H54.4559ZM100.943 9.6L80.7434 38H73.6634L93.8634 9.6H100.943ZM122.678 29.32L105.758 39.32V32.16L113.398 27.64L105.758 22.84V16.04L122.678 26.28V29.32Z" fill="black"/>
</svg>
