<svg width="135" height="44" viewBox="0 0 135 44" fill="none" xmlns="http://www.w3.org/2000/svg">
<path d="M1.28 26.28L18.16 16.04V22.84L10.56 27.64L18.16 32.16V39.32L1.28 29.32V26.28ZM24.6231 38V9.6H35.2231C38.3431 9.6 40.9431 10.24 43.0231 11.52C45.1298 12.7733 46.7165 14.48 47.7831 16.64C48.8498 18.7733 49.3831 21.1467 49.3831 23.76C49.3831 26.64 48.7965 29.1467 47.6231 31.28C46.4498 33.4133 44.7965 35.0667 42.6631 36.24C40.5565 37.4133 38.0765 38 35.2231 38H24.6231ZM42.7031 23.76C42.7031 21.2533 42.0498 19.2267 40.7431 17.68C39.4365 16.1333 37.5965 15.36 35.2231 15.36H31.1831V32.24H35.2231C36.8231 32.24 38.1831 31.88 39.3031 31.16C40.4231 30.4133 41.2631 29.4 41.8231 28.12C42.4098 26.84 42.7031 25.3867 42.7031 23.76ZM54.4559 38V9.6H73.7359V15.36H61.0159V21.48H71.4959V26.8H61.0159V38H54.4559ZM99.9094 9.6L80.7094 38H76.7894L95.9494 9.6H99.9094ZM121.302 28.64L104.502 38.64V34.72L116.182 27.64L104.502 20.44V16.68L121.302 26.8V28.64Z" fill="black"/>
<path d="M1.28 26.28L0.761339 25.425L0.28 25.717V26.28H1.28ZM18.16 16.04H19.16V14.2637L17.6413 15.185L18.16 16.04ZM18.16 22.84L18.694 23.6855L19.16 23.3912V22.84H18.16ZM10.56 27.64L10.026 26.7945L8.64676 27.6656L10.0488 28.4995L10.56 27.64ZM18.16 32.16H19.16V31.5912L18.6712 31.3005L18.16 32.16ZM18.16 39.32L17.6503 40.1804L19.16 41.0747V39.32H18.16ZM1.28 29.32H0.28V29.8899L0.770309 30.1804L1.28 29.32ZM1.79866 27.135L18.6787 16.895L17.6413 15.185L0.761339 25.425L1.79866 27.135ZM17.16 16.04V22.84H19.16V16.04H17.16ZM17.626 21.9945L10.026 26.7945L11.094 28.4855L18.694 23.6855L17.626 21.9945ZM10.0488 28.4995L17.6488 33.0195L18.6712 31.3005L11.0712 26.7805L10.0488 28.4995ZM17.16 32.16V39.32H19.16V32.16H17.16ZM18.6697 38.4596L1.78969 28.4596L0.770309 30.1804L17.6503 40.1804L18.6697 38.4596ZM2.28 29.32V26.28H0.28V29.32H2.28ZM24.6231 38H23.6231V39H24.6231V38ZM24.6231 9.6V8.6H23.6231V9.6H24.6231ZM43.0231 11.52L42.499 12.3717L42.5054 12.3756L42.5118 12.3794L43.0231 11.52ZM47.7831 16.64L46.8865 17.0828L46.8887 17.0872L47.7831 16.64ZM47.6231 31.28L46.7469 30.7981L46.7469 30.7981L47.6231 31.28ZM42.6631 36.24L42.1812 35.3638L42.1765 35.3664L42.6631 36.24ZM40.7431 17.68L39.9792 18.3254L39.9792 18.3254L40.7431 17.68ZM31.1831 15.36V14.36H30.1831V15.36H31.1831ZM31.1831 32.24H30.1831V33.24H31.1831V32.24ZM39.3031 31.16L39.8439 32.0012L39.8509 31.9967L39.8578 31.9921L39.3031 31.16ZM41.8231 28.12L40.9141 27.7033L40.9104 27.7112L40.907 27.7192L41.8231 28.12ZM25.6231 38V9.6H23.6231V38H25.6231ZM24.6231 10.6H35.2231V8.6H24.6231V10.6ZM35.2231 10.6C38.2087 10.6 40.6148 11.2122 42.499 12.3717L43.5472 10.6683C41.2714 9.26784 38.4775 8.6 35.2231 8.6V10.6ZM42.5118 12.3794C44.4556 13.5358 45.9069 15.0991 46.8865 17.0828L48.6798 16.1972C47.526 13.8609 45.804 12.0108 43.5344 10.6606L42.5118 12.3794ZM46.8887 17.0872C47.8795 19.0688 48.3831 21.2868 48.3831 23.76H50.3831C50.3831 21.0065 49.8201 18.4779 48.6776 16.1928L46.8887 17.0872ZM48.3831 23.76C48.3831 26.5024 47.8254 28.8373 46.7469 30.7981L48.4993 31.7619C49.7676 29.4561 50.3831 26.7776 50.3831 23.76H48.3831ZM46.7469 30.7981C45.665 32.7653 44.1484 34.2818 42.1812 35.3638L43.145 37.1162C45.4445 35.8515 47.2346 34.0614 48.4993 31.7619L46.7469 30.7981ZM42.1765 35.3664C40.2438 36.4428 37.9374 37 35.2231 37V39C38.2155 39 40.8691 38.3838 43.1497 37.1136L42.1765 35.3664ZM35.2231 37H24.6231V39H35.2231V37ZM43.7031 23.76C43.7031 21.0752 42.9999 18.8017 41.507 17.0346L39.9792 18.3254C41.0997 19.6516 41.7031 21.4314 41.7031 23.76H43.7031ZM41.507 17.0346C39.9768 15.2234 37.8347 14.36 35.2231 14.36V16.36C37.3582 16.36 38.8961 17.0432 39.9792 18.3254L41.507 17.0346ZM35.2231 14.36H31.1831V16.36H35.2231V14.36ZM30.1831 15.36V32.24H32.1831V15.36H30.1831ZM31.1831 33.24H35.2231V31.24H31.1831V33.24ZM35.2231 33.24C36.9758 33.24 38.5326 32.8442 39.8439 32.0012L38.7624 30.3188C37.8337 30.9158 36.6705 31.24 35.2231 31.24V33.24ZM39.8578 31.9921C41.1434 31.135 42.1056 29.9692 42.7393 28.5208L40.907 27.7192C40.4206 28.8308 39.7029 29.6916 38.7484 30.3279L39.8578 31.9921ZM42.7322 28.5367C43.3874 27.1071 43.7031 25.5082 43.7031 23.76H41.7031C41.7031 25.2651 41.4322 26.5729 40.9141 27.7033L42.7322 28.5367ZM54.4559 38H53.4559V39H54.4559V38ZM54.4559 9.6V8.6H53.4559V9.6H54.4559ZM73.7359 9.6H74.7359V8.6H73.7359V9.6ZM73.7359 15.36V16.36H74.7359V15.36H73.7359ZM61.0159 15.36V14.36H60.0159V15.36H61.0159ZM61.0159 21.48H60.0159V22.48H61.0159V21.48ZM71.4959 21.48H72.4959V20.48H71.4959V21.48ZM71.4959 26.8V27.8H72.4959V26.8H71.4959ZM61.0159 26.8V25.8H60.0159V26.8H61.0159ZM61.0159 38V39H62.0159V38H61.0159ZM55.4559 38V9.6H53.4559V38H55.4559ZM54.4559 10.6H73.7359V8.6H54.4559V10.6ZM72.7359 9.6V15.36H74.7359V9.6H72.7359ZM73.7359 14.36H61.0159V16.36H73.7359V14.36ZM60.0159 15.36V21.48H62.0159V15.36H60.0159ZM61.0159 22.48H71.4959V20.48H61.0159V22.48ZM70.4959 21.48V26.8H72.4959V21.48H70.4959ZM71.4959 25.8H61.0159V27.8H71.4959V25.8ZM60.0159 26.8V38H62.0159V26.8H60.0159ZM61.0159 37H54.4559V39H61.0159V37ZM99.9094 9.6L100.738 10.1601L101.793 8.6H99.9094V9.6ZM80.7094 38V39H81.2404L81.5378 38.5601L80.7094 38ZM76.7894 38L75.9604 37.4407L74.9084 39H76.7894V38ZM95.9494 9.6V8.6H95.4177L95.1204 9.04073L95.9494 9.6ZM99.0809 9.03992L79.8809 37.4399L81.5378 38.5601L100.738 10.1601L99.0809 9.03992ZM80.7094 37H76.7894V39H80.7094V37ZM77.6184 38.5593L96.7784 10.1593L95.1204 9.04073L75.9604 37.4407L77.6184 38.5593ZM95.9494 10.6H99.9094V8.6H95.9494V10.6ZM121.302 28.64L121.813 29.4993L122.302 29.2085V28.64H121.302ZM104.502 38.64H103.502V40.399L105.013 39.4993L104.502 38.64ZM104.502 34.72L103.984 33.8648L103.502 34.1568V34.72H104.502ZM116.182 27.64L116.7 28.4952L118.099 27.6472L116.707 26.7887L116.182 27.64ZM104.502 20.44H103.502V20.9983L103.977 21.2913L104.502 20.44ZM104.502 16.68L105.018 15.8234L103.502 14.9102V16.68H104.502ZM121.302 26.8H122.302V26.235L121.818 25.9434L121.302 26.8ZM120.79 27.7807L103.99 37.7807L105.013 39.4993L121.813 29.4993L120.79 27.7807ZM105.502 38.64V34.72H103.502V38.64H105.502ZM105.02 35.5752L116.7 28.4952L115.664 26.7848L103.984 33.8648L105.02 35.5752ZM116.707 26.7887L105.027 19.5887L103.977 21.2913L115.657 28.4913L116.707 26.7887ZM105.502 20.44V16.68H103.502V20.44H105.502ZM103.986 17.5366L120.786 27.6566L121.818 25.9434L105.018 15.8234L103.986 17.5366ZM120.302 26.8V28.64H122.302V26.8H120.302Z" fill="black"/>
</svg>
