<svg width="102" height="103" viewBox="0 0 102 103" fill="none" xmlns="http://www.w3.org/2000/svg">
<path d="M40.2882 42.9988C36.9793 42.9988 34.3669 45.5613 34.3669 48.6875C34.3669 51.8138 37.0373 54.3763 40.2882 54.3763C43.5972 54.3763 46.2095 51.8138 46.2095 48.6875C46.2676 45.5613 43.5972 42.9988 40.2882 42.9988ZM61.4772 42.9988C58.1682 42.9988 55.5559 45.5613 55.5559 48.6875C55.5559 51.8138 58.2263 54.3763 61.4772 54.3763C64.7862 54.3763 67.3985 51.8138 67.3985 48.6875C67.3985 45.5613 64.7862 42.9988 61.4772 42.9988Z" fill="black"/>
<path d="M89.6903 0H11.9006C5.34078 0 0 4.715 0 10.5575V79.8475C0 85.69 5.34078 90.405 11.9006 90.405H77.7315L74.6548 80.9238L82.0854 87.0225L89.1097 92.7625L101.591 102.5V10.5575C101.591 4.715 96.2501 0 89.6903 0ZM67.2822 66.9325C67.2822 66.9325 65.1923 64.7288 63.4508 62.7813C71.0556 60.885 73.9582 56.6825 73.9582 56.6825C71.578 58.0663 69.314 59.04 67.2822 59.7063C64.3796 60.7825 61.5931 61.5 58.8647 61.91C53.2917 62.8325 48.1831 62.5763 43.8292 61.8588C40.5203 61.295 37.6757 60.475 35.2956 59.655C33.9604 59.1938 32.5091 58.63 31.0578 57.9125C30.8836 57.81 30.7095 57.7588 30.5353 57.6563C30.4192 57.605 30.3612 57.5538 30.3031 57.5025C29.2582 56.99 28.6777 56.6313 28.6777 56.6313C28.6777 56.6313 31.4642 60.7313 38.8368 62.6788C37.0952 64.6263 34.9473 66.9325 34.9473 66.9325C22.1178 66.5738 17.2414 59.1425 17.2414 59.1425C17.2414 42.64 25.6009 29.2638 25.6009 29.2638C33.9604 23.7288 41.9135 23.8825 41.9135 23.8825L42.494 24.4975C32.0447 27.1625 27.2264 31.2113 27.2264 31.2113C27.2264 31.2113 28.5035 30.5963 30.6514 29.725C36.863 27.3163 41.7974 26.65 43.8292 26.4963C44.1775 26.445 44.4678 26.3938 44.8161 26.3938C48.3573 25.9838 52.3628 25.8813 56.5426 26.2913C62.0575 26.855 67.9788 28.29 74.0162 31.2113C74.0162 31.2113 69.4301 27.3675 59.5613 24.7025L60.374 23.8825C60.374 23.8825 68.3271 23.7288 76.6866 29.2638C76.6866 29.2638 85.0461 42.64 85.0461 59.1425C85.0461 59.1425 80.1117 66.5738 67.2822 66.9325V66.9325Z" fill="black"/>
</svg>
