<svg width="280" height="280" viewBox="0 0 280 280" fill="none" xmlns="http://www.w3.org/2000/svg">
<circle cx="149" cy="5" r="5" fill="#263CAB" fill-opacity="0.2"/>
<circle cx="149" cy="23" r="5" fill="#263CAB" fill-opacity="0.2"/>
<circle cx="149" cy="41" r="5" fill="#263CAB" fill-opacity="0.2"/>
<circle cx="149" cy="59" r="5" fill="#263CAB" fill-opacity="0.2"/>
<circle cx="149" cy="77" r="5" fill="#263CAB" fill-opacity="0.2"/>
<circle cx="149" cy="95" r="5" fill="#263CAB" fill-opacity="0.2"/>
<circle cx="149" cy="113" r="5" fill="#263CAB" fill-opacity="0.2"/>
<circle cx="149" cy="131" r="5" fill="#263CAB" fill-opacity="0.2"/>
<circle cx="167" cy="5" r="5" fill="#263CAB" fill-opacity="0.2"/>
<circle cx="167" cy="23" r="5" fill="#263CAB" fill-opacity="0.2"/>
<circle cx="167" cy="41" r="5" fill="#263CAB" fill-opacity="0.2"/>
<circle cx="167" cy="59" r="5" fill="#263CAB" fill-opacity="0.2"/>
<circle cx="167" cy="77" r="5" fill="#263CAB" fill-opacity="0.2"/>
<circle cx="167" cy="95" r="5" fill="#263CAB" fill-opacity="0.2"/>
<circle cx="167" cy="113" r="5" fill="#263CAB" fill-opacity="0.2"/>
<circle cx="167" cy="131" r="5" fill="#263CAB" fill-opacity="0.2"/>
<circle cx="185" cy="5" r="5" fill="#263CAB" fill-opacity="0.2"/>
<circle cx="185" cy="23" r="5" fill="#263CAB" fill-opacity="0.2"/>
<circle cx="185" cy="41" r="5" fill="#263CAB" fill-opacity="0.2"/>
<circle cx="185" cy="59" r="5" fill="#263CAB" fill-opacity="0.2"/>
<circle cx="185" cy="77" r="5" fill="#263CAB" fill-opacity="0.2"/>
<circle cx="185" cy="95" r="5" fill="#263CAB" fill-opacity="0.2"/>
<circle cx="185" cy="113" r="5" fill="#263CAB" fill-opacity="0.2"/>
<circle cx="185" cy="131" r="5" fill="#263CAB" fill-opacity="0.2"/>
<circle cx="203" cy="5" r="5" fill="#263CAB" fill-opacity="0.2"/>
<circle cx="203" cy="23" r="5" fill="#263CAB" fill-opacity="0.2"/>
<circle cx="203" cy="41" r="5" fill="#263CAB" fill-opacity="0.2"/>
<circle cx="203" cy="59" r="5" fill="#263CAB" fill-opacity="0.2"/>
<circle cx="203" cy="77" r="5" fill="#263CAB" fill-opacity="0.2"/>
<circle cx="203" cy="95" r="5" fill="#263CAB" fill-opacity="0.2"/>
<circle cx="203" cy="113" r="5" fill="#263CAB" fill-opacity="0.2"/>
<circle cx="203" cy="131" r="5" fill="#263CAB" fill-opacity="0.2"/>
<circle cx="221" cy="5" r="5" fill="#263CAB" fill-opacity="0.2"/>
<circle cx="221" cy="23" r="5" fill="#263CAB" fill-opacity="0.2"/>
<circle cx="221" cy="41" r="5" fill="#263CAB" fill-opacity="0.2"/>
<circle cx="221" cy="59" r="5" fill="#263CAB" fill-opacity="0.2"/>
<circle cx="221" cy="77" r="5" fill="#263CAB" fill-opacity="0.2"/>
<circle cx="221" cy="95" r="5" fill="#263CAB" fill-opacity="0.2"/>
<circle cx="221" cy="113" r="5" fill="#263CAB" fill-opacity="0.2"/>
<circle cx="221" cy="131" r="5" fill="#263CAB" fill-opacity="0.2"/>
<circle cx="239" cy="5" r="5" fill="#263CAB" fill-opacity="0.2"/>
<circle cx="239" cy="23" r="5" fill="#263CAB" fill-opacity="0.2"/>
<circle cx="239" cy="41" r="5" fill="#263CAB" fill-opacity="0.2"/>
<circle cx="239" cy="59" r="5" fill="#263CAB" fill-opacity="0.2"/>
<circle cx="239" cy="77" r="5" fill="#263CAB" fill-opacity="0.2"/>
<circle cx="239" cy="95" r="5" fill="#263CAB" fill-opacity="0.2"/>
<circle cx="239" cy="113" r="5" fill="#263CAB" fill-opacity="0.2"/>
<circle cx="239" cy="131" r="5" fill="#263CAB" fill-opacity="0.2"/>
<circle cx="257" cy="5" r="5" fill="#263CAB" fill-opacity="0.2"/>
<circle cx="257" cy="23" r="5" fill="#263CAB" fill-opacity="0.2"/>
<circle cx="257" cy="41" r="5" fill="#263CAB" fill-opacity="0.2"/>
<circle cx="257" cy="59" r="5" fill="#263CAB" fill-opacity="0.2"/>
<circle cx="257" cy="77" r="5" fill="#263CAB" fill-opacity="0.2"/>
<circle cx="257" cy="95" r="5" fill="#263CAB" fill-opacity="0.2"/>
<circle cx="257" cy="113" r="5" fill="#263CAB" fill-opacity="0.2"/>
<circle cx="257" cy="131" r="5" fill="#263CAB" fill-opacity="0.2"/>
<circle cx="275" cy="5" r="5" fill="#263CAB" fill-opacity="0.2"/>
<circle cx="275" cy="23" r="5" fill="#263CAB" fill-opacity="0.2"/>
<circle cx="275" cy="41" r="5" fill="#263CAB" fill-opacity="0.2"/>
<circle cx="275" cy="59" r="5" fill="#263CAB" fill-opacity="0.2"/>
<circle cx="275" cy="77" r="5" fill="#263CAB" fill-opacity="0.2"/>
<circle cx="275" cy="95" r="5" fill="#263CAB" fill-opacity="0.2"/>
<circle cx="275" cy="113" r="5" fill="#263CAB" fill-opacity="0.2"/>
<circle cx="275" cy="131" r="5" fill="#263CAB" fill-opacity="0.2"/>
<circle cx="5" cy="5" r="5" fill="#263CAB" fill-opacity="0.2"/>
<circle cx="5" cy="23" r="5" fill="#263CAB" fill-opacity="0.2"/>
<circle cx="5" cy="41" r="5" fill="#263CAB" fill-opacity="0.2"/>
<circle cx="5" cy="59" r="5" fill="#263CAB" fill-opacity="0.2"/>
<circle cx="5" cy="77" r="5" fill="#263CAB" fill-opacity="0.2"/>
<circle cx="5" cy="95" r="5" fill="#263CAB" fill-opacity="0.2"/>
<circle cx="5" cy="113" r="5" fill="#263CAB" fill-opacity="0.2"/>
<circle cx="5" cy="131" r="5" fill="#263CAB" fill-opacity="0.2"/>
<circle cx="23" cy="5" r="5" fill="#263CAB" fill-opacity="0.2"/>
<circle cx="23" cy="23" r="5" fill="#263CAB" fill-opacity="0.2"/>
<circle cx="23" cy="41" r="5" fill="#263CAB" fill-opacity="0.2"/>
<circle cx="23" cy="59" r="5" fill="#263CAB" fill-opacity="0.2"/>
<circle cx="23" cy="77" r="5" fill="#263CAB" fill-opacity="0.2"/>
<circle cx="23" cy="95" r="5" fill="#263CAB" fill-opacity="0.2"/>
<circle cx="23" cy="113" r="5" fill="#263CAB" fill-opacity="0.2"/>
<circle cx="23" cy="131" r="5" fill="#263CAB" fill-opacity="0.2"/>
<circle cx="41" cy="5" r="5" fill="#263CAB" fill-opacity="0.2"/>
<circle cx="41" cy="23" r="5" fill="#263CAB" fill-opacity="0.2"/>
<circle cx="41" cy="41" r="5" fill="#263CAB" fill-opacity="0.2"/>
<circle cx="41" cy="59" r="5" fill="#263CAB" fill-opacity="0.2"/>
<circle cx="41" cy="77" r="5" fill="#263CAB" fill-opacity="0.2"/>
<circle cx="41" cy="95" r="5" fill="#263CAB" fill-opacity="0.2"/>
<circle cx="41" cy="113" r="5" fill="#263CAB" fill-opacity="0.2"/>
<circle cx="41" cy="131" r="5" fill="#263CAB" fill-opacity="0.2"/>
<circle cx="59" cy="5" r="5" fill="#263CAB" fill-opacity="0.2"/>
<circle cx="59" cy="23" r="5" fill="#263CAB" fill-opacity="0.2"/>
<circle cx="59" cy="41" r="5" fill="#263CAB" fill-opacity="0.2"/>
<circle cx="59" cy="59" r="5" fill="#263CAB" fill-opacity="0.2"/>
<circle cx="59" cy="77" r="5" fill="#263CAB" fill-opacity="0.2"/>
<circle cx="59" cy="95" r="5" fill="#263CAB" fill-opacity="0.2"/>
<circle cx="59" cy="113" r="5" fill="#263CAB" fill-opacity="0.2"/>
<circle cx="59" cy="131" r="5" fill="#263CAB" fill-opacity="0.2"/>
<circle cx="77" cy="5" r="5" fill="#263CAB" fill-opacity="0.2"/>
<circle cx="77" cy="23" r="5" fill="#263CAB" fill-opacity="0.2"/>
<circle cx="77" cy="41" r="5" fill="#263CAB" fill-opacity="0.2"/>
<circle cx="77" cy="59" r="5" fill="#263CAB" fill-opacity="0.2"/>
<circle cx="77" cy="77" r="5" fill="#263CAB" fill-opacity="0.2"/>
<circle cx="77" cy="95" r="5" fill="#263CAB" fill-opacity="0.2"/>
<circle cx="77" cy="113" r="5" fill="#263CAB" fill-opacity="0.2"/>
<circle cx="77" cy="131" r="5" fill="#263CAB" fill-opacity="0.2"/>
<circle cx="95" cy="5" r="5" fill="#263CAB" fill-opacity="0.2"/>
<circle cx="95" cy="23" r="5" fill="#263CAB" fill-opacity="0.2"/>
<circle cx="95" cy="41" r="5" fill="#263CAB" fill-opacity="0.2"/>
<circle cx="95" cy="59" r="5" fill="#263CAB" fill-opacity="0.2"/>
<circle cx="95" cy="77" r="5" fill="#263CAB" fill-opacity="0.2"/>
<circle cx="95" cy="95" r="5" fill="#263CAB" fill-opacity="0.2"/>
<circle cx="95" cy="113" r="5" fill="#263CAB" fill-opacity="0.2"/>
<circle cx="95" cy="131" r="5" fill="#263CAB" fill-opacity="0.2"/>
<circle cx="113" cy="5" r="5" fill="#263CAB" fill-opacity="0.2"/>
<circle cx="113" cy="23" r="5" fill="#263CAB" fill-opacity="0.2"/>
<circle cx="113" cy="41" r="5" fill="#263CAB" fill-opacity="0.2"/>
<circle cx="113" cy="59" r="5" fill="#263CAB" fill-opacity="0.2"/>
<circle cx="113" cy="77" r="5" fill="#263CAB" fill-opacity="0.2"/>
<circle cx="113" cy="95" r="5" fill="#263CAB" fill-opacity="0.2"/>
<circle cx="113" cy="113" r="5" fill="#263CAB" fill-opacity="0.2"/>
<circle cx="113" cy="131" r="5" fill="#263CAB" fill-opacity="0.2"/>
<circle cx="131" cy="5" r="5" fill="#263CAB" fill-opacity="0.2"/>
<circle cx="131" cy="23" r="5" fill="#263CAB" fill-opacity="0.2"/>
<circle cx="131" cy="41" r="5" fill="#263CAB" fill-opacity="0.2"/>
<circle cx="131" cy="59" r="5" fill="#263CAB" fill-opacity="0.2"/>
<circle cx="131" cy="77" r="5" fill="#263CAB" fill-opacity="0.2"/>
<circle cx="131" cy="95" r="5" fill="#263CAB" fill-opacity="0.2"/>
<circle cx="131" cy="113" r="5" fill="#263CAB" fill-opacity="0.2"/>
<circle cx="131" cy="131" r="5" fill="#263CAB" fill-opacity="0.2"/>
<circle cx="149" cy="149" r="5" fill="#263CAB" fill-opacity="0.2"/>
<circle cx="149" cy="167" r="5" fill="#263CAB" fill-opacity="0.2"/>
<circle cx="149" cy="185" r="5" fill="#263CAB" fill-opacity="0.2"/>
<circle cx="149" cy="203" r="5" fill="#263CAB" fill-opacity="0.2"/>
<circle cx="149" cy="221" r="5" fill="#263CAB" fill-opacity="0.2"/>
<circle cx="149" cy="239" r="5" fill="#263CAB" fill-opacity="0.2"/>
<circle cx="149" cy="257" r="5" fill="#263CAB" fill-opacity="0.2"/>
<circle cx="149" cy="275" r="5" fill="#263CAB" fill-opacity="0.2"/>
<circle cx="167" cy="149" r="5" fill="#263CAB" fill-opacity="0.2"/>
<circle cx="167" cy="167" r="5" fill="#263CAB" fill-opacity="0.2"/>
<circle cx="167" cy="185" r="5" fill="#263CAB" fill-opacity="0.2"/>
<circle cx="167" cy="203" r="5" fill="#263CAB" fill-opacity="0.2"/>
<circle cx="167" cy="221" r="5" fill="#263CAB" fill-opacity="0.2"/>
<circle cx="167" cy="239" r="5" fill="#263CAB" fill-opacity="0.2"/>
<circle cx="167" cy="257" r="5" fill="#263CAB" fill-opacity="0.2"/>
<circle cx="167" cy="275" r="5" fill="#263CAB" fill-opacity="0.2"/>
<circle cx="185" cy="149" r="5" fill="#263CAB" fill-opacity="0.2"/>
<circle cx="185" cy="167" r="5" fill="#263CAB" fill-opacity="0.2"/>
<circle cx="185" cy="185" r="5" fill="#263CAB" fill-opacity="0.2"/>
<circle cx="185" cy="203" r="5" fill="#263CAB" fill-opacity="0.2"/>
<circle cx="185" cy="221" r="5" fill="#263CAB" fill-opacity="0.2"/>
<circle cx="185" cy="239" r="5" fill="#263CAB" fill-opacity="0.2"/>
<circle cx="185" cy="257" r="5" fill="#263CAB" fill-opacity="0.2"/>
<circle cx="185" cy="275" r="5" fill="#263CAB" fill-opacity="0.2"/>
<circle cx="203" cy="149" r="5" fill="#263CAB" fill-opacity="0.2"/>
<circle cx="203" cy="167" r="5" fill="#263CAB" fill-opacity="0.2"/>
<circle cx="203" cy="185" r="5" fill="#263CAB" fill-opacity="0.2"/>
<circle cx="203" cy="203" r="5" fill="#263CAB" fill-opacity="0.2"/>
<circle cx="203" cy="221" r="5" fill="#263CAB" fill-opacity="0.2"/>
<circle cx="203" cy="239" r="5" fill="#263CAB" fill-opacity="0.2"/>
<circle cx="203" cy="257" r="5" fill="#263CAB" fill-opacity="0.2"/>
<circle cx="203" cy="275" r="5" fill="#263CAB" fill-opacity="0.2"/>
<circle cx="221" cy="149" r="5" fill="#263CAB" fill-opacity="0.2"/>
<circle cx="221" cy="167" r="5" fill="#263CAB" fill-opacity="0.2"/>
<circle cx="221" cy="185" r="5" fill="#263CAB" fill-opacity="0.2"/>
<circle cx="221" cy="203" r="5" fill="#263CAB" fill-opacity="0.2"/>
<circle cx="221" cy="221" r="5" fill="#263CAB" fill-opacity="0.2"/>
<circle cx="221" cy="239" r="5" fill="#263CAB" fill-opacity="0.2"/>
<circle cx="221" cy="257" r="5" fill="#263CAB" fill-opacity="0.2"/>
<circle cx="221" cy="275" r="5" fill="#263CAB" fill-opacity="0.2"/>
<circle cx="239" cy="149" r="5" fill="#263CAB" fill-opacity="0.2"/>
<circle cx="239" cy="167" r="5" fill="#263CAB" fill-opacity="0.2"/>
<circle cx="239" cy="185" r="5" fill="#263CAB" fill-opacity="0.2"/>
<circle cx="239" cy="203" r="5" fill="#263CAB" fill-opacity="0.2"/>
<circle cx="239" cy="221" r="5" fill="#263CAB" fill-opacity="0.2"/>
<circle cx="239" cy="239" r="5" fill="#263CAB" fill-opacity="0.2"/>
<circle cx="239" cy="257" r="5" fill="#263CAB" fill-opacity="0.2"/>
<circle cx="239" cy="275" r="5" fill="#263CAB" fill-opacity="0.2"/>
<circle cx="257" cy="149" r="5" fill="#263CAB" fill-opacity="0.2"/>
<circle cx="257" cy="167" r="5" fill="#263CAB" fill-opacity="0.2"/>
<circle cx="257" cy="185" r="5" fill="#263CAB" fill-opacity="0.2"/>
<circle cx="257" cy="203" r="5" fill="#263CAB" fill-opacity="0.2"/>
<circle cx="257" cy="221" r="5" fill="#263CAB" fill-opacity="0.2"/>
<circle cx="257" cy="239" r="5" fill="#263CAB" fill-opacity="0.2"/>
<circle cx="257" cy="257" r="5" fill="#263CAB" fill-opacity="0.2"/>
<circle cx="257" cy="275" r="5" fill="#263CAB" fill-opacity="0.2"/>
<circle cx="275" cy="149" r="5" fill="#263CAB" fill-opacity="0.2"/>
<circle cx="275" cy="167" r="5" fill="#263CAB" fill-opacity="0.2"/>
<circle cx="275" cy="185" r="5" fill="#263CAB" fill-opacity="0.2"/>
<circle cx="275" cy="203" r="5" fill="#263CAB" fill-opacity="0.2"/>
<circle cx="275" cy="221" r="5" fill="#263CAB" fill-opacity="0.2"/>
<circle cx="275" cy="239" r="5" fill="#263CAB" fill-opacity="0.2"/>
<circle cx="275" cy="257" r="5" fill="#263CAB" fill-opacity="0.2"/>
<circle cx="275" cy="275" r="5" fill="#263CAB" fill-opacity="0.2"/>
<circle cx="5" cy="149" r="5" fill="#263CAB" fill-opacity="0.2"/>
<circle cx="5" cy="167" r="5" fill="#263CAB" fill-opacity="0.2"/>
<circle cx="5" cy="185" r="5" fill="#263CAB" fill-opacity="0.2"/>
<circle cx="5" cy="203" r="5" fill="#263CAB" fill-opacity="0.2"/>
<circle cx="5" cy="221" r="5" fill="#263CAB" fill-opacity="0.2"/>
<circle cx="5" cy="239" r="5" fill="#263CAB" fill-opacity="0.2"/>
<circle cx="5" cy="257" r="5" fill="#263CAB" fill-opacity="0.2"/>
<circle cx="5" cy="275" r="5" fill="#263CAB" fill-opacity="0.2"/>
<circle cx="23" cy="149" r="5" fill="#263CAB" fill-opacity="0.2"/>
<circle cx="23" cy="167" r="5" fill="#263CAB" fill-opacity="0.2"/>
<circle cx="23" cy="185" r="5" fill="#263CAB" fill-opacity="0.2"/>
<circle cx="23" cy="203" r="5" fill="#263CAB" fill-opacity="0.2"/>
<circle cx="23" cy="221" r="5" fill="#263CAB" fill-opacity="0.2"/>
<circle cx="23" cy="239" r="5" fill="#263CAB" fill-opacity="0.2"/>
<circle cx="23" cy="257" r="5" fill="#263CAB" fill-opacity="0.2"/>
<circle cx="23" cy="275" r="5" fill="#263CAB" fill-opacity="0.2"/>
<circle cx="41" cy="149" r="5" fill="#263CAB" fill-opacity="0.2"/>
<circle cx="41" cy="167" r="5" fill="#263CAB" fill-opacity="0.2"/>
<circle cx="41" cy="185" r="5" fill="#263CAB" fill-opacity="0.2"/>
<circle cx="41" cy="203" r="5" fill="#263CAB" fill-opacity="0.2"/>
<circle cx="41" cy="221" r="5" fill="#263CAB" fill-opacity="0.2"/>
<circle cx="41" cy="239" r="5" fill="#263CAB" fill-opacity="0.2"/>
<circle cx="41" cy="257" r="5" fill="#263CAB" fill-opacity="0.2"/>
<circle cx="41" cy="275" r="5" fill="#263CAB" fill-opacity="0.2"/>
<circle cx="59" cy="149" r="5" fill="#263CAB" fill-opacity="0.2"/>
<circle cx="59" cy="167" r="5" fill="#263CAB" fill-opacity="0.2"/>
<circle cx="59" cy="185" r="5" fill="#263CAB" fill-opacity="0.2"/>
<circle cx="59" cy="203" r="5" fill="#263CAB" fill-opacity="0.2"/>
<circle cx="59" cy="221" r="5" fill="#263CAB" fill-opacity="0.2"/>
<circle cx="59" cy="239" r="5" fill="#263CAB" fill-opacity="0.2"/>
<circle cx="59" cy="257" r="5" fill="#263CAB" fill-opacity="0.2"/>
<circle cx="59" cy="275" r="5" fill="#263CAB" fill-opacity="0.2"/>
<circle cx="77" cy="149" r="5" fill="#263CAB" fill-opacity="0.2"/>
<circle cx="77" cy="167" r="5" fill="#263CAB" fill-opacity="0.2"/>
<circle cx="77" cy="185" r="5" fill="#263CAB" fill-opacity="0.2"/>
<circle cx="77" cy="203" r="5" fill="#263CAB" fill-opacity="0.2"/>
<circle cx="77" cy="221" r="5" fill="#263CAB" fill-opacity="0.2"/>
<circle cx="77" cy="239" r="5" fill="#263CAB" fill-opacity="0.2"/>
<circle cx="77" cy="257" r="5" fill="#263CAB" fill-opacity="0.2"/>
<circle cx="77" cy="275" r="5" fill="#263CAB" fill-opacity="0.2"/>
<circle cx="95" cy="149" r="5" fill="#263CAB" fill-opacity="0.2"/>
<circle cx="95" cy="167" r="5" fill="#263CAB" fill-opacity="0.2"/>
<circle cx="95" cy="185" r="5" fill="#263CAB" fill-opacity="0.2"/>
<circle cx="95" cy="203" r="5" fill="#263CAB" fill-opacity="0.2"/>
<circle cx="95" cy="221" r="5" fill="#263CAB" fill-opacity="0.2"/>
<circle cx="95" cy="239" r="5" fill="#263CAB" fill-opacity="0.2"/>
<circle cx="95" cy="257" r="5" fill="#263CAB" fill-opacity="0.2"/>
<circle cx="95" cy="275" r="5" fill="#263CAB" fill-opacity="0.2"/>
<circle cx="113" cy="149" r="5" fill="#263CAB" fill-opacity="0.2"/>
<circle cx="113" cy="167" r="5" fill="#263CAB" fill-opacity="0.2"/>
<circle cx="113" cy="185" r="5" fill="#263CAB" fill-opacity="0.2"/>
<circle cx="113" cy="203" r="5" fill="#263CAB" fill-opacity="0.2"/>
<circle cx="113" cy="221" r="5" fill="#263CAB" fill-opacity="0.2"/>
<circle cx="113" cy="239" r="5" fill="#263CAB" fill-opacity="0.2"/>
<circle cx="113" cy="257" r="5" fill="#263CAB" fill-opacity="0.2"/>
<circle cx="113" cy="275" r="5" fill="#263CAB" fill-opacity="0.2"/>
<circle cx="131" cy="149" r="5" fill="#263CAB" fill-opacity="0.2"/>
<circle cx="131" cy="167" r="5" fill="#263CAB" fill-opacity="0.2"/>
<circle cx="131" cy="185" r="5" fill="#263CAB" fill-opacity="0.2"/>
<circle cx="131" cy="203" r="5" fill="#263CAB" fill-opacity="0.2"/>
<circle cx="131" cy="221" r="5" fill="#263CAB" fill-opacity="0.2"/>
<circle cx="131" cy="239" r="5" fill="#263CAB" fill-opacity="0.2"/>
<circle cx="131" cy="257" r="5" fill="#263CAB" fill-opacity="0.2"/>
<circle cx="131" cy="275" r="5" fill="#263CAB" fill-opacity="0.2"/>
</svg>
