<svg width="120" height="120" viewBox="0 0 120 120" fill="none" xmlns="http://www.w3.org/2000/svg">
<path d="M88 0H32C26.48 0.0065 22.0065 4.48 22 10V110C22.0065 115.52 26.48 119.993 32 120H88C93.52 119.993 97.9935 115.52 98 110V10C97.9935 4.48 93.52 0.0065 88 0ZM94 110C94 113.314 91.3138 116 88 116H32C28.6862 116 26 113.314 26 110V108H94V110ZM94 104H26V16H94V104ZM94 12H26V10C26 6.68625 28.6862 4 32 4H88C91.3138 4 94 6.68625 94 10V12Z" fill="#BEC4E6"/>
<path d="M56 6H52C50.8955 6 50 6.8955 50 8C50 9.1045 50.8955 10 52 10H56C57.1045 10 58 9.1045 58 8C58 6.8955 57.1045 6 56 6Z" fill="#BEC4E6"/>
<path d="M70 6H62C60.8955 6 60 6.8955 60 8C60 9.1045 60.8955 10 62 10H70C71.1045 10 72 9.1045 72 8C72 6.8955 71.1045 6 70 6Z" fill="#BEC4E6"/>
<path d="M66 110H54C52.8955 110 52 110.895 52 112C52 113.105 52.8955 114 54 114H66C67.1045 114 68 113.105 68 112C68 110.895 67.1045 110 66 110Z" fill="#BEC4E6"/>
</svg>
