<svg width="88" height="88" viewBox="0 0 88 88" fill="none" xmlns="http://www.w3.org/2000/svg">
<g clip-path="url(#clip0)">
<path d="M0.278495 8.07243L6.14739 18.3424C6.34536 18.6894 6.6767 18.9405 7.06418 19.0377L12.5396 20.4065L31.319 39.1859L33.3939 37.1115L14.3206 18.0388C14.1329 17.8505 13.8975 17.7171 13.6398 17.6525L8.37871 16.3326L3.38194 7.58355L7.66592 3.29957L16.4186 8.30117L17.7391 13.5623C17.8031 13.8206 17.9371 14.0566 18.1248 14.2443L37.1981 33.3176L39.2725 31.2426L20.4931 12.4632L19.1243 6.99087C19.0271 6.60279 18.776 6.27084 18.429 6.07227L8.15841 0.203974C7.58565 -0.121941 6.86501 -0.0253738 6.39786 0.439961L0.529571 6.30886C0.0575967 6.77299 -0.0450064 7.49483 0.278495 8.07243V8.07243Z" fill="#BEC4E6"/>
<path d="M61.2759 28.9153L28.9988 61.193L26.9238 59.118L59.2016 26.8409L61.2759 28.9153Z" fill="#BEC4E6"/>
<path d="M23.3496 62.335C23.0841 61.8932 22.6073 61.6234 22.0918 61.6234H13.2891C12.7743 61.6234 12.2969 61.8932 12.0319 62.335L7.63024 69.6705C7.35079 70.1353 7.35079 70.7165 7.63024 71.1818L12.0319 78.5173C12.2969 78.9585 12.7743 79.2289 13.2891 79.2289H22.0918C22.6073 79.2289 23.0841 78.9585 23.3496 78.5173L27.7507 71.1818C28.0301 70.7165 28.0301 70.1353 27.7507 69.6705L23.3496 62.335ZM21.262 76.2945H14.1196L10.5985 70.4262L14.1196 64.5573H21.262L24.7831 70.4262L21.262 76.2945Z" fill="#BEC4E6"/>
<path d="M70.5079 35.2146C80.1978 35.2472 88.0802 27.4179 88.1127 17.728C88.1176 16.2529 87.9365 14.7839 87.5738 13.3541C87.3782 12.5676 86.5822 12.089 85.7957 12.2846C85.5374 12.3492 85.302 12.4825 85.1137 12.6702L75.9808 21.7971L68.7346 19.3823L66.318 12.1379L75.4509 3.00322C76.0237 2.42985 76.0231 1.50099 75.4497 0.928223C75.2608 0.739312 75.023 0.605325 74.7629 0.541349C65.3656 -1.83844 55.8193 3.85 53.4395 13.2466C53.078 14.6722 52.8976 16.1376 52.9024 17.6085C52.906 18.7637 53.0249 19.9152 53.2591 21.0463L21.128 53.1768C19.997 52.9432 18.8454 52.8243 17.6908 52.8201C7.96705 52.8201 0.0847168 60.7024 0.0847168 70.4262C0.0847168 80.1493 7.96705 88.0316 17.6908 88.0316C27.414 88.0316 35.2963 80.1493 35.2963 70.4262C35.2927 69.271 35.1732 68.1194 34.9396 66.9883L42.6318 59.2961L45.996 62.6603C46.5694 63.2331 47.4976 63.2331 48.071 62.6603L48.8043 61.9264C49.4477 61.2872 50.4876 61.2872 51.131 61.9264C51.7737 62.5674 51.775 63.6079 51.134 64.2507C51.1334 64.2513 51.1322 64.2525 51.131 64.2537L50.3977 64.987C49.8249 65.5597 49.8249 66.4886 50.3977 67.0614L67.8993 84.5631C72.5026 89.2086 79.9999 89.2424 84.6454 84.6391C89.2903 80.0358 89.3241 72.538 84.7208 67.8931C84.6961 67.8677 84.6707 67.8424 84.6454 67.817L67.1437 50.3159C66.5709 49.7432 65.6421 49.7432 65.0693 50.3159L64.336 51.0493C63.692 51.689 62.6527 51.689 62.0087 51.0493C61.3665 50.4083 61.3647 49.3678 62.0057 48.7256C62.0069 48.7244 62.0081 48.7238 62.0087 48.7226L62.7426 47.9887C63.3154 47.4159 63.3154 46.487 62.7426 45.9143L59.3784 42.5501L67.0707 34.8579C68.2017 35.0914 69.3533 35.2109 70.5079 35.2146V35.2146ZM76.2723 85.0978C75.2065 85.096 74.1497 84.9035 73.152 84.5286L84.6104 73.0697C86.3395 77.6693 84.0128 82.7995 79.4132 84.5286C78.4095 84.9059 77.3455 85.099 76.2723 85.0978ZM59.6513 46.9662C58.0265 48.9042 58.2812 51.7928 60.2192 53.417C61.9224 54.8444 64.4048 54.8432 66.1062 53.4127L82.571 69.892C82.7496 70.0713 82.9168 70.2602 83.0786 70.4521L70.5344 82.9962C70.3419 82.8351 70.153 82.6679 69.9737 82.4887L53.4963 66.01C55.121 64.072 54.8663 61.1834 52.9283 59.5593C51.2251 58.1313 48.7421 58.1331 47.0407 59.5629L44.6935 57.2157L57.3035 44.6245L59.6513 46.9662ZM65.5757 32.2101L32.293 65.4861C31.9279 65.8507 31.7812 66.38 31.9056 66.8803C33.9184 74.785 29.1419 82.8248 21.2366 84.8371C13.332 86.8499 5.29213 82.0734 3.27929 74.1682C1.26707 66.2635 6.04354 58.2236 13.9488 56.2108C16.3401 55.6024 18.8454 55.6024 21.2366 56.2108C21.737 56.3333 22.2651 56.1867 22.6308 55.8239L55.9056 22.5473C56.2702 22.1828 56.4168 21.6535 56.2913 21.1537C54.2924 13.3414 59.0049 5.38784 66.8172 3.38828C68.2934 3.01107 69.8204 2.86622 71.3414 2.96097L63.6021 10.7033C63.2092 11.0956 63.0716 11.6768 63.2472 12.2037L66.181 21.0071C66.3277 21.4446 66.6717 21.7886 67.1099 21.9341L75.9132 24.8686C76.4395 25.0442 77.0207 24.9072 77.4137 24.5149L85.153 16.7756C85.1705 17.0556 85.1795 17.3327 85.1795 17.6085C85.2205 25.6701 78.7191 32.2385 70.6575 32.2801C69.4112 32.2862 68.1691 32.1329 66.962 31.8238C66.4617 31.6989 65.9324 31.845 65.5678 32.2095H65.5757V32.2101Z" fill="#BEC4E6"/>
<path d="M75.9482 73.7898L73.8732 75.8648L59.2021 61.1938L61.2765 59.1188L75.9482 73.7898Z" fill="#BEC4E6"/>
</g>
<defs>
<clipPath id="clip0">
<rect width="88" height="88" fill="white"/>
</clipPath>
</defs>
</svg>
