<svg id="Capa_1" enable-background="new 0 0 512 512" height="512" viewBox="0 0 512 512" width="512" xmlns="http://www.w3.org/2000/svg"><g><g><g><g><path d="m250.973 511.773c3.306.294 6.631-.484 9.45-2.236 96.955-60.253 156.281-166.454 156.281-281.12v-148.477c0-6.913-1.53-13.513-4.283-19.451-4.134-8.916-12.526-15.12-22.228-16.692-.029-.005-.058-.009-.087-.014-38.362-6.219-82.458-17.664-121.963-40.531-7.534-4.361-16.817-4.322-24.352.037-60.307 34.886-138.001 44.287-175.898 46.821-12.847.859-22.83 11.511-22.83 24.386v135.158c0 117.21 62.56 225.507 164.095 284.063l18.592 10.722c7.239 4.174 15.171 6.617 23.223 7.334z" fill="#9bc4f9"/><g><path d="m444.107 50.11c-13.697-.916-32.606-2.738-54-6.327 12.252 8.269 20.176 22.341 20.176 38.018v147.081c0 116.269-61.567 223.759-161.665 282.635 12.139 1.597 24.68-.761 35.633-7.078l18.592-10.722c101.535-58.556 164.095-166.853 164.095-284.063v-135.158c-.001-12.876-9.984-23.528-22.831-24.386z" fill="#7fb2f9"/></g><path d="m256 475.562c-1.991 0-3.955-.526-5.68-1.519l-26.163-15.089c-42.955-24.772-78.769-60.562-103.572-103.498-24.803-42.937-37.914-91.841-37.914-141.427v-118.683c0-4.89 3.685-8.999 8.548-9.506 41.634-4.337 105.559-15.46 160.415-43.976 2.735-1.422 5.998-1.422 8.733 0 54.854 28.515 118.781 39.639 160.415 43.976 4.863.507 8.548 4.616 8.548 9.506v118.681c0 49.586-13.11 98.491-37.913 141.428-24.804 42.936-60.618 78.725-103.572 103.498l-26.165 15.089c-1.725.994-3.689 1.52-5.68 1.52z" fill="#fff"/><path d="m429.329 214.028v-118.682c0-4.889-3.685-8.999-8.548-9.506-3.356-.35-6.87-.749-10.498-1.192v144.233c0 57.327-14.976 112.515-42.149 160.798 8.563-10.795 16.353-22.23 23.283-34.225 24.802-42.936 37.912-91.841 37.912-141.426z" fill="#eaf2ff"/></g><g><g><g><g><g><g><g><g><g><g><circle cx="256" cy="246.736" fill="#eaf2ff" r="120.519"/></g></g><path d="m341.219 161.516c-30.792-30.792-74.099-41.435-113.546-31.937 20.848 5.02 40.619 15.663 56.892 31.937 47.065 47.065 47.065 123.373 0 170.439-16.274 16.274-36.044 26.917-56.892 31.937 39.447 9.498 82.755-1.145 113.546-31.937 47.066-47.065 47.066-123.373 0-170.439z" fill="#c9e0fd"/></g></g></g></g></g></g></g></g></g></g><path d="m364.527 299.11c-1.916-1.004-4.243-2.13-7.084-3.414-1.078-.487-16.329-7.402-39.672-13.151 1.818-11.272 2.794-23.288 2.794-35.809s-.976-24.537-2.794-35.809c21.707-5.346 43.224-14.414 46.999-16.057-2.15-4.511-4.597-8.915-7.339-13.185-5.245 2.217-23.931 9.859-42.611 14.517-10.066-41.658-32.364-69.982-58.864-69.982-26.505 0-48.806 28.334-58.869 70.004-19.862-4.95-38.986-13.024-42.58-14.578-2.716 4.224-5.142 8.58-7.277 13.041 1.135.523 23.56 10.515 46.908 16.262-1.816 11.265-2.791 23.274-2.791 35.786 0 12.521.976 24.537 2.794 35.809-19.455 4.791-39.954 13.33-46.88 16.305 2.161 4.507 4.618 8.908 7.373 13.173 2.889-1.287 5.604-2.541 6.07-2.755.245-.112 14.467-6.552 36.384-12.015 10.065 41.666 32.365 69.998 58.868 69.998 26.5 0 48.798-28.324 58.864-69.981 18.548 4.625 37.115 12.395 42.481 14.719 2.692-4.172 5.101-8.474 7.226-12.878zm-116.038 51.861c-14.888-5.29-29.337-25.976-36.857-56.919 11.18-2.136 23.655-3.768 36.857-4.228zm0-76.092c-14.309.461-27.757 2.196-39.765 4.484-1.57-10.084-2.442-21.002-2.442-32.626 0-11.617.872-22.529 2.439-32.608 11.995 2.28 25.439 4.008 39.768 4.466zm0-71.23c-13.207-.46-25.681-2.09-36.858-4.224 7.519-30.946 21.97-51.635 36.858-56.924zm14.935-61.149c14.886 5.289 29.334 25.971 36.854 56.907-11.189 2.141-23.667 3.778-36.854 4.241zm0 208.471v-61.146c13.187.462 25.664 2.099 36.854 4.24-7.521 30.936-21.969 51.618-36.854 56.906zm39.764-71.608c-12.008-2.287-25.456-4.023-39.765-4.484v-56.285c14.309-.461 27.757-2.196 39.765-4.483 1.569 10.084 2.442 21.002 2.442 32.626s-.872 22.541-2.442 32.626z" fill="#9bc4f9"/></g></svg>