<svg width="110" height="110" viewBox="0 0 110 110" fill="none" xmlns="http://www.w3.org/2000/svg">
<path d="M101.943 15.3613H96.3014C95.4113 15.3613 94.69 16.0826 94.69 16.9727C94.69 17.8628 95.4113 18.584 96.3014 18.584H101.943C104.609 18.584 106.777 20.7526 106.777 23.418V30.8301H3.22266V23.418C3.22266 20.7526 5.39107 18.584 8.05664 18.584H89.2265C90.1166 18.584 90.8379 17.8628 90.8379 16.9727C90.8379 16.0826 90.1166 15.3613 89.2265 15.3613H8.05664C3.6141 15.3613 0 18.9754 0 23.418V41.1815C0 42.0716 0.721445 42.7928 1.61133 42.7928C2.50121 42.7928 3.22266 42.0716 3.22266 41.1815V34.0527H106.777V75.5962C106.777 76.4863 107.499 77.2075 108.389 77.2075C109.279 77.2075 110 76.4863 110 75.5962V23.418C110 18.9754 106.386 15.3613 101.943 15.3613Z" fill="#BEC4E6"/>
<path d="M108.389 80.78C107.499 80.78 106.777 81.5012 106.777 82.3913V86.582C106.777 89.2474 104.609 91.416 101.943 91.416H8.05664C5.39107 91.416 3.22266 89.2474 3.22266 86.582V48.0964C3.22266 47.2063 2.50121 46.4851 1.61133 46.4851C0.721445 46.4851 0 47.2063 0 48.0964V86.582C0 91.0246 3.6141 94.6387 8.05664 94.6387H101.943C106.386 94.6387 110 91.0246 110 86.582V82.3913C110 81.5014 109.279 80.78 108.389 80.78Z" fill="#BEC4E6"/>
<path d="M23.3067 50.3716C22.6774 49.7426 21.6571 49.7426 21.028 50.3716L11.345 60.0546C11.0427 60.3569 10.873 60.7666 10.873 61.1942C10.873 61.6217 11.0427 62.0312 11.345 62.3337L20.9 71.8887C21.2145 72.2032 21.627 72.3605 22.0393 72.3605C22.4516 72.3605 22.8641 72.2032 23.1786 71.8887C23.8079 71.2592 23.8079 70.2391 23.1786 69.6098L14.763 61.1944L23.3067 52.6507C23.9362 52.0212 23.9362 51.0011 23.3067 50.3716Z" fill="#BEC4E6"/>
<path d="M44.9763 71.8884C45.2908 72.2029 45.7033 72.3602 46.1156 72.3602C46.5279 72.3602 46.9404 72.2029 47.2549 71.8884L56.8101 62.3335C57.1121 62.0312 57.2819 61.6215 57.2819 61.1939C57.2819 60.7664 57.1121 60.3569 56.8101 60.0544L47.1268 50.3714C46.4976 49.7423 45.4773 49.7423 44.8482 50.3714C44.2189 51.0009 44.2189 52.021 44.8482 52.6502L53.3921 61.1939L44.9765 69.6094C44.347 70.2391 44.347 71.2591 44.9763 71.8884Z" fill="#BEC4E6"/>
<path d="M28.3572 77.8237C29.0071 77.8237 29.6196 77.4275 29.8639 76.7836L41.3138 46.62C41.6296 45.7879 41.2111 44.8574 40.3792 44.5416C39.5474 44.2256 38.6167 44.6443 38.301 45.4762L26.8512 75.6402C26.5353 76.4721 26.9539 77.4026 27.7857 77.7184C27.9739 77.7899 28.1671 77.8237 28.3572 77.8237Z" fill="#BEC4E6"/>
<path d="M7.09113 24.7868C7.09113 27.4521 9.25954 29.6208 11.9251 29.6208C14.5907 29.6208 16.7591 27.4521 16.7591 24.7868C16.7591 22.1214 14.5907 19.9528 11.9251 19.9528C9.25954 19.9528 7.09113 22.1214 7.09113 24.7868ZM13.5364 24.7868C13.5364 25.6754 12.8137 26.3981 11.9251 26.3981C11.0365 26.3981 10.3138 25.6754 10.3138 24.7868C10.3138 23.8982 11.0365 23.1754 11.9251 23.1754C12.8137 23.1754 13.5364 23.8982 13.5364 24.7868Z" fill="#BEC4E6"/>
<path d="M19.5864 24.7868C19.5864 27.4521 21.7548 29.6208 24.4204 29.6208C27.086 29.6208 29.2544 27.4521 29.2544 24.7868C29.2544 22.1214 27.086 19.9528 24.4204 19.9528C21.7548 19.9528 19.5864 22.1214 19.5864 24.7868ZM26.0317 24.7868C26.0317 25.6754 25.309 26.3981 24.4204 26.3981C23.5318 26.3981 22.8091 25.6754 22.8091 24.7868C22.8091 23.8982 23.5318 23.1754 24.4204 23.1754C25.309 23.1754 26.0317 23.8982 26.0317 24.7868Z" fill="#BEC4E6"/>
<path d="M32.0815 24.7868C32.0815 27.4521 34.2499 29.6208 36.9155 29.6208C39.5811 29.6208 41.7495 27.4521 41.7495 24.7868C41.7495 22.1214 39.5811 19.9528 36.9155 19.9528C34.2499 19.9528 32.0815 22.1214 32.0815 24.7868ZM38.5268 24.7868C38.5268 25.6754 37.8041 26.3981 36.9155 26.3981C36.0269 26.3981 35.3042 25.6754 35.3042 24.7868C35.3042 23.8982 36.0269 23.1754 36.9155 23.1754C37.8041 23.1754 38.5268 23.8982 38.5268 24.7868Z" fill="#BEC4E6"/>
<path d="M72.0801 52.0713H82.1777C84.8431 52.0713 87.0117 49.9026 87.0117 47.2373C87.0117 44.5719 84.8431 42.4033 82.1777 42.4033H72.0801C69.4147 42.4033 67.2461 44.5719 67.2461 47.2373C67.2461 49.9026 69.4147 52.0713 72.0801 52.0713ZM72.0801 45.6259H82.1777C83.0663 45.6259 83.7891 46.3487 83.7891 47.2373C83.7891 48.1259 83.0663 48.8486 82.1777 48.8486H72.0801C71.1915 48.8486 70.4688 48.1259 70.4688 47.2373C70.4688 46.3487 71.1915 45.6259 72.0801 45.6259Z" fill="#BEC4E6"/>
<path d="M72.0801 64.9619H98.7207C101.386 64.9619 103.555 62.7932 103.555 60.1279C103.555 57.4625 101.386 55.2939 98.7207 55.2939H72.0801C69.4147 55.2939 67.2461 57.4625 67.2461 60.1279C67.2461 62.7932 69.4147 64.9619 72.0801 64.9619ZM72.0801 58.5165H98.7207C99.6093 58.5165 100.332 59.2393 100.332 60.1279C100.332 61.0165 99.6093 61.7392 98.7207 61.7392H72.0801C71.1915 61.7392 70.4688 61.0165 70.4688 60.1279C70.4688 59.2393 71.1915 58.5165 72.0801 58.5165Z" fill="#BEC4E6"/>
<path d="M72.0801 77.8525H90.8069C93.4723 77.8525 95.6409 75.6838 95.6409 73.0185C95.6409 70.3531 93.4723 68.1845 90.8069 68.1845H72.0801C69.4147 68.1845 67.2461 70.3531 67.2461 73.0185C67.2461 75.6838 69.4147 77.8525 72.0801 77.8525ZM72.0801 71.4072H90.8069C91.6955 71.4072 92.4183 72.1299 92.4183 73.0185C92.4183 73.9071 91.6955 74.6298 90.8069 74.6298H72.0801C71.1915 74.6298 70.4688 73.9071 70.4688 73.0185C70.4688 72.1299 71.1915 71.4072 72.0801 71.4072Z" fill="#BEC4E6"/>
</svg>
