<svg height="512pt" viewBox="0 -35 512.002 512" width="512pt" xmlns="http://www.w3.org/2000/svg"><path d="m352.765625 149.621094c-87.804687 0-159.238281 64.050781-159.238281 142.785156 0 78.730469 71.433594 142.78125 159.238281 142.78125 19.011719 0 37.554687-2.960938 55.207031-8.8125l39.394532 14.863281c1.722656.652344 3.515624.96875 5.292968.96875 3.769532 0 7.472656-1.421875 10.308594-4.101562 4.171875-3.945313 5.726562-9.921875 4.003906-15.398438l-7.609375-24.191406c33.59375-27.0625 52.640625-65.179687 52.640625-106.109375-.003906-78.734375-71.4375-142.785156-159.238281-142.785156zm0 0" fill="#54e360"/><path d="m512 292.40625c0-78.734375-71.433594-142.785156-159.234375-142.785156l-.003906 285.566406h.003906c19.011719 0 37.554687-2.960938 55.207031-8.8125l39.394532 14.863281c1.722656.652344 3.515624.96875 5.292968.96875 3.769532 0 7.472656-1.421875 10.308594-4.101562 4.171875-3.945313 5.726562-9.921875 4.003906-15.398438l-7.609375-24.191406c33.59375-27.0625 52.636719-65.179687 52.636719-106.109375zm0 0" fill="#1fbf66"/><path d="m163.527344 292.40625c0-23.710938 5.183594-46.703125 15.40625-68.34375 9.75-20.628906 23.628906-39.105469 41.257812-54.910156 35.621094-31.941406 82.703125-49.53125 132.574219-49.53125 2.722656 0 5.433594.0625 8.140625.164062-8.496094-27.078125-24.710938-51.855468-47.660156-72.1875-34.644532-30.695312-80.585938-47.597656-129.359375-47.597656-48.78125 0-94.722657 16.902344-129.367188 47.597656-35.160156 31.144532-54.519531 72.703125-54.519531 117.023438 0 51.476562 26.71875 99.597656 72.011719 130.679687l-9.144531 38.914063c-1.386719 5.890625.902343 12.035156 5.804687 15.585937 2.617187 1.890625 5.703125 2.847657 8.796875 2.847657 2.703125 0 5.414062-.730469 7.820312-2.199219l45.921876-28.066407c11.886718 3.175782 24.09375 5.230469 36.480468 6.199219-2.761718-11.808593-4.164062-23.894531-4.164062-36.175781zm0 0" fill="#54e360"/><path d="m313.246094 47.597656c-34.644532-30.695312-80.585938-47.597656-129.359375-47.597656v214.4375c9.296875-16.78125 21.46875-31.980469 36.304687-45.285156 35.621094-31.941406 82.703125-49.53125 132.574219-49.53125 2.722656 0 5.4375.0625 8.140625.164062-8.496094-27.078125-24.710938-51.855468-47.660156-72.1875zm0 0" fill="#1fbf66"/><path d="m123.773438 136.082031c-3.9375 0-7.808594-1.601562-10.601563-4.390625-2.789063-2.792968-4.386719-6.660156-4.386719-10.609375 0-3.953125 1.597656-7.8125 4.386719-10.601562 2.792969-2.800781 6.660156-4.398438 10.601563-4.398438 3.949218 0 7.820312 1.597657 10.609374 4.398438 2.789063 2.789062 4.402344 6.648437 4.402344 10.601562 0 3.949219-1.613281 7.816407-4.402344 10.609375-2.789062 2.789063-6.65625 4.390625-10.609374 4.390625zm0 0" fill="#e7f0ef"/><path d="m222.296875 136.082031c-3.953125 0-7.820313-1.601562-10.613281-4.390625-2.789063-2.792968-4.386719-6.660156-4.386719-10.609375 0-3.953125 1.597656-7.8125 4.386719-10.601562 2.792968-2.800781 6.660156-4.398438 10.613281-4.398438 3.949219 0 7.808594 1.597657 10.597656 4.398438 2.789063 2.789062 4.402344 6.648437 4.402344 10.601562 0 3.949219-1.613281 7.816407-4.402344 10.609375-2.789062 2.789063-6.648437 4.390625-10.597656 4.390625zm0 0" fill="#c5e1e6"/><path d="m296.894531 269.238281c-3.949219 0-7.808593-1.597656-10.597656-4.386719-2.792969-2.800781-4.402344-6.660156-4.402344-10.613281 0-3.949219 1.609375-7.816406 4.402344-10.605469 2.789063-2.792968 6.660156-4.394531 10.597656-4.394531 3.949219 0 7.820313 1.601563 10.609375 4.394531 2.792969 2.789063 4.390625 6.65625 4.390625 10.605469 0 3.953125-1.597656 7.8125-4.390625 10.613281-2.789062 2.789063-6.660156 4.386719-10.609375 4.386719zm0 0" fill="#e7f0ef"/><path d="m400.855469 269.238281c-3.949219 0-7.808594-1.597656-10.601563-4.386719-2.800781-2.792968-4.398437-6.660156-4.398437-10.613281 0-3.949219 1.601562-7.816406 4.398437-10.605469 2.792969-2.792968 6.660156-4.394531 10.601563-4.394531 3.949219 0 7.820312 1.601563 10.609375 4.394531 2.789062 2.789063 4.390625 6.65625 4.390625 10.605469 0 3.953125-1.601563 7.8125-4.390625 10.613281-2.789063 2.789063-6.660156 4.386719-10.609375 4.386719zm0 0" fill="#c5e1e6"/></svg>